<?xml version="1.0" standalone="no"?>
<!DOCTYPE svg PUBLIC "-//W3C//DTD SVG 20010904//EN"
 "http://www.w3.org/TR/2001/REC-SVG-20010904/DTD/svg10.dtd">
<svg version="1.0" xmlns="http://www.w3.org/2000/svg"
 width="1536.000000pt" height="1024.000000pt" viewBox="0 0 1536.000000 1024.000000"
 preserveAspectRatio="xMidYMid meet">

<g transform="translate(0.000000,1024.000000) scale(0.100000,-0.100000)"
fill="#000000" stroke="none">
<path d="M7613 9610 l5 -630 -756 -2 c-721 -3 -759 -4 -795 -22 -22 -11 -51
-37 -65 -59 l-27 -41 -3 -678 -3 -678 -87 47 c-48 26 -127 76 -177 111 -205
148 -444 232 -853 302 -92 15 -159 29 -150 29 10 1 17 5 15 10 -4 16 64 92 76
85 7 -4 9 -4 5 1 -4 4 -3 14 4 22 6 7 9 15 6 18 -2 2 -32 -29 -67 -70 -78 -93
-95 -97 -86 -17 8 77 23 156 41 218 l14 52 106 51 c87 43 121 67 190 133 107
103 153 189 179 333 65 358 -147 684 -511 786 -102 29 -277 32 -374 6 -214
-56 -406 -221 -487 -417 -30 -71 -35 -98 -40 -189 -11 -199 49 -364 181 -496
80 -81 216 -169 294 -190 28 -8 76 -22 106 -30 l54 -15 26 -72 c15 -40 39
-103 54 -140 l27 -68 60 -1 c43 -1 24 -5 -71 -14 -71 -7 -166 -20 -210 -30
-190 -42 -440 -152 -595 -260 -102 -73 -252 -215 -338 -322 -97 -120 -274
-417 -395 -663 -116 -235 -181 -345 -198 -334 -7 4 -8 3 -4 -5 4 -6 -6 -29
-25 -52 -31 -39 -32 -40 -53 -22 -11 10 -18 14 -14 9 4 -5 3 -18 -3 -30 -9
-20 -9 -20 4 -3 12 14 17 15 23 6 12 -21 -132 -148 -229 -201 -47 -27 -92 -45
-100 -42 -8 3 -18 1 -22 -5 -4 -7 1 -8 12 -4 26 9 12 -4 -102 -88 -137 -102
-217 -179 -271 -261 -50 -75 -99 -190 -110 -256 l-6 -41 -512 -3 -511 -3 -57
-27 c-114 -53 -201 -163 -227 -286 -7 -32 -11 -161 -11 -325 0 -293 6 -337 54
-423 14 -25 23 -51 19 -58 -3 -6 -3 -8 1 -4 4 3 36 -16 72 -43 99 -75 158 -89
373 -89 l176 0 -32 -19 c-40 -25 -261 -170 -588 -386 -143 -95 -300 -194 -350
-221 -50 -27 -99 -54 -110 -61 -11 -6 -53 -28 -92 -49 l-73 -37 0 -1673 0
-1674 7680 0 7680 0 0 981 0 980 -59 -73 c-135 -167 -395 -422 -562 -549 l-78
-59 -875 0 -876 0 0 48 c0 82 5 89 66 95 77 8 149 50 203 120 35 45 62 67 121
97 41 22 113 69 160 104 110 83 335 314 429 439 69 93 76 99 161 141 499 251
1006 750 1255 1236 l55 108 0 627 0 627 -56 -78 c-94 -130 -173 -222 -314
-365 -138 -139 -190 -184 -314 -277 -271 -203 -543 -353 -849 -467 l-87 -33
-37 67 c-69 124 -185 316 -231 381 -95 135 -202 224 -332 279 -30 13 -95 43
-145 66 -115 55 -187 79 -360 120 -179 43 -286 61 -458 76 -75 7 -135 14 -133
16 2 3 73 8 158 13 377 22 591 109 808 329 70 71 106 118 139 178 41 77 46 82
82 88 155 26 299 186 356 395 22 81 25 339 4 410 -22 75 -80 183 -124 227 -37
39 -128 93 -155 93 -19 0 -14 14 11 29 12 8 77 45 145 83 68 37 128 73 135 78
7 5 67 51 135 101 80 60 159 130 230 206 59 63 131 132 160 155 66 51 135 142
178 234 46 97 165 275 385 569 130 174 243 305 352 408 64 60 231 190 286 223
l31 18 0 848 0 848 -3876 0 -3876 0 5 -630z m2202 26 c38 -16 105 -73 105 -90
0 -6 -17 6 -37 28 -46 48 -82 63 -158 64 l-60 0 47 -11 c27 -7 48 -16 47 -21
0 -5 5 -13 13 -17 9 -6 6 -9 -12 -9 -19 0 -21 -3 -11 -9 8 -5 20 -7 28 -4 7 3
13 0 13 -5 0 -6 8 -13 18 -16 10 -3 25 -19 35 -35 14 -25 17 -66 17 -335 1
-269 -1 -311 -15 -333 -9 -14 -14 -27 -11 -30 13 -13 -79 -43 -132 -43 -30 0
-52 -3 -49 -7 4 -3 35 -6 69 -5 49 0 56 -2 33 -8 -22 -5 -24 -8 -10 -10 15 -1
10 -5 -15 -15 l-35 -13 45 -4 c25 -3 -106 -5 -290 -6 l-336 -2 -34 -30 c-19
-16 -41 -29 -47 -30 -7 0 -13 -5 -13 -12 0 -6 -3 -9 -6 -5 -4 3 8 20 25 37 17
18 29 36 25 41 -3 5 -9 7 -14 4 -4 -3 -13 2 -20 10 -10 12 -16 13 -26 4 -8 -6
-12 -14 -10 -18 3 -4 -4 -7 -13 -7 -13 0 -5 13 28 43 l46 42 350 1 c329 0 352
1 382 20 61 37 63 48 63 375 0 318 -3 339 -53 367 -17 10 -114 12 -417 9 -251
-1 -404 1 -420 8 -23 9 -22 10 15 11 29 2 34 4 19 8 -15 5 -20 14 -19 32 1 14
-3 28 -9 32 -6 5 175 8 403 8 321 -1 421 -4 446 -14z m123 -242 l-3 -119 -5
127 c-3 70 -1 124 3 119 4 -4 6 -61 5 -127z m2382 114 c68 -21 97 -64 109
-166 10 -83 -2 -206 -24 -252 -23 -48 -55 -69 -124 -81 -69 -13 -163 1 -201
30 -56 41 -65 73 -65 231 0 158 9 193 60 226 48 32 162 37 245 12z m-1837 6
c36 -6 37 -8 37 -49 l0 -42 -98 5 c-118 5 -142 -3 -142 -52 0 -44 11 -51 97
-66 90 -15 134 -42 151 -95 27 -80 -6 -160 -78 -189 -41 -16 -220 -23 -254
-10 -11 4 -16 19 -16 45 l0 39 114 -2 c130 -2 146 5 146 59 0 29 -5 36 -32 47
-18 7 -63 19 -100 26 -44 8 -76 20 -92 35 -30 28 -50 96 -41 141 8 44 49 92
88 103 38 11 166 13 220 5z m227 -187 c5 -183 6 -189 29 -208 28 -23 126 -26
154 -4 28 21 37 75 37 243 l0 152 49 0 50 0 -2 -182 c-3 -210 -11 -241 -80
-286 -36 -24 -50 -27 -126 -27 -101 0 -153 20 -188 74 -22 32 -23 43 -23 233
l0 199 48 -3 47 -3 5 -188z m710 167 c55 -22 74 -60 75 -146 0 -114 -42 -149
-189 -153 l-91 -3 -3 -91 -3 -91 -49 0 -50 0 0 248 c0 137 3 252 7 255 13 14
260 -2 303 -19z m444 8 c72 -25 91 -55 90 -147 -1 -124 -37 -153 -193 -156
l-91 -2 0 -94 0 -93 -50 0 -50 0 0 255 0 255 123 0 c88 -1 136 -6 171 -18z
m948 -6 c48 -23 73 -84 65 -156 -7 -60 -28 -94 -67 -110 -17 -7 -30 -14 -30
-16 0 -3 29 -48 65 -102 l65 -97 -57 -3 c-51 -3 -60 0 -73 19 -8 13 -39 56
-68 96 -45 62 -58 73 -83 73 l-29 0 0 -95 0 -95 -50 0 -50 0 0 256 0 257 138
-5 c103 -3 146 -9 174 -22z m508 -21 l0 -44 -71 -3 -71 -3 2 -207 1 -208 -56
0 -55 0 0 210 0 210 -65 0 -65 0 0 45 0 46 190 -1 190 -2 0 -43z m160 -211 l0
-255 -52 3 -53 3 -3 240 c-1 132 0 245 2 252 4 8 24 13 56 13 l50 0 0 -256z
m418 214 l-3 -43 -85 0 c-136 0 -150 -17 -150 -182 0 -89 15 -135 47 -148 10
-4 58 -10 106 -12 l88 -6 -3 -36 -3 -36 -117 0 c-135 0 -156 9 -196 86 -22 41
-23 53 -20 179 6 215 30 240 221 240 l118 0 -3 -42z m383 21 c62 -31 80 -81
80 -219 0 -135 -13 -185 -56 -226 -38 -35 -70 -44 -163 -44 -142 0 -192 58
-200 231 -7 150 22 234 92 265 18 8 68 13 119 14 70 0 96 -4 128 -21z m365
-153 l104 -169 -4 172 -3 171 49 0 48 0 0 -255 0 -255 -44 0 -45 0 -100 163
c-56 89 -105 169 -110 177 -7 10 -10 -46 -10 -162 l-1 -178 -45 0 -45 0 0 256
0 255 51 -3 51 -3 104 -169z m-10041 34 c16 -13 17 -28 12 -140 -7 -157 -53
-459 -73 -480 -19 -20 -110 -16 -134 5 -19 17 -39 131 -65 375 -21 193 -20
225 8 245 30 22 224 18 252 -5z m4910 -256 c-116 -104 -277 -147 -425 -113
-68 16 -159 64 -215 115 l-50 46 35 28 35 28 48 -45 c76 -71 123 -88 247 -88
92 0 112 3 160 26 31 14 76 46 100 72 l45 45 35 -35 35 -34 -50 -45z m422
-177 c-1 -45 -3 -5 -3 88 0 94 2 130 3 82 2 -48 2 -125 0 -170z m2127 -123
c27 -11 19 -42 -11 -46 -22 -2 -29 -9 -31 -30 -3 -25 0 -28 28 -28 25 0 31 -4
28 -17 -2 -11 -14 -19 -31 -21 l-27 -3 0 -95 0 -94 -30 0 -30 0 0 95 c0 78 -3
95 -15 95 -8 0 -15 9 -15 20 0 11 7 20 15 20 10 0 15 10 15 28 0 54 56 94 104
76z m-2162 -39 c-28 -36 -62 -61 -92 -69 l-25 -6 25 12 c42 21 52 34 35 48 -8
6 -20 8 -27 4 -10 -5 -10 -4 -1 6 10 11 16 10 33 -5 11 -10 23 -15 27 -11 4 4
1 12 -7 17 -12 9 -11 10 4 5 13 -5 17 -2 13 8 -4 10 -1 13 9 9 7 -3 14 1 14 8
0 7 3 10 6 6 4 -3 -3 -18 -14 -32z m3728 -110 c0 -138 1 -145 20 -145 13 0 20
-7 20 -20 0 -16 -7 -20 -34 -20 -58 0 -66 22 -66 187 l0 143 30 0 30 0 0 -145z
m136 20 c0 -165 0 -165 25 -165 36 0 19 -35 -19 -38 -59 -6 -62 3 -62 175 l0
154 28 -3 27 -3 1 -120z m-3393 93 c24 -12 17 -44 -8 -40 -85 15 -84 15 -115
-16 -25 -26 -30 -38 -30 -81 0 -27 5 -61 11 -75 17 -36 62 -52 110 -39 49 13
63 -2 28 -30 -19 -15 -35 -18 -83 -15 -53 4 -63 8 -92 41 -34 37 -40 60 -34
137 2 39 21 80 44 99 43 36 120 44 169 19z m767 -118 l0 -140 25 0 c15 0 25
-6 25 -15 0 -18 -41 -29 -74 -21 -32 8 -36 28 -36 184 l0 132 30 0 30 0 0
-140z m1700 126 c0 -28 -16 -36 -71 -36 l-59 0 0 -42 0 -43 52 0 c46 0 53 -3
53 -20 0 -17 -8 -20 -52 -23 l-53 -3 0 -45 0 -44 66 0 c62 0 65 -1 62 -22 -3
-22 -8 -23 -95 -26 l-91 -3 -6 28 c-6 34 -6 241 1 266 4 15 17 17 99 17 52 0
94 -2 94 -4z m-2100 -45 c0 -25 4 -30 27 -33 17 -2 29 -10 31 -20 3 -14 -3
-18 -28 -18 l-31 0 3 -72 c3 -72 3 -73 31 -76 20 -3 27 -8 25 -20 -4 -24 -80
-29 -98 -7 -8 9 -15 51 -18 96 -3 55 -8 79 -17 79 -25 0 -26 30 -1 40 13 5 26
20 30 34 10 39 46 36 46 -3z m992 2 c2 -22 9 -29 33 -33 41 -7 40 -34 -2 -38
-33 -3 -33 -4 -33 -55 0 -76 8 -95 39 -99 44 -5 32 -33 -16 -36 -58 -4 -73 20
-73 114 0 63 -2 72 -20 77 -26 7 -26 27 -1 34 12 3 23 17 26 34 9 39 42 40 47
2z m-1151 -53 c29 -29 30 -31 27 -117 -3 -77 -5 -88 -22 -91 -10 -2 -22 2 -27
9 -6 11 -11 11 -21 1 -17 -17 -84 -15 -102 4 -18 17 -21 56 -6 84 10 20 59 40
96 40 17 0 24 6 24 20 0 29 -35 44 -73 31 -51 -18 -64 19 -13 39 45 18 86 11
117 -20z m413 9 c25 -20 26 -24 26 -120 0 -91 -2 -99 -19 -99 -11 0 -21 5 -23
11 -3 9 -9 9 -25 0 -78 -41 -155 30 -101 94 18 20 36 28 71 32 50 6 59 20 30
48 -16 16 -43 16 -85 0 -14 -6 -18 -2 -18 14 0 42 98 56 144 20z m286 -66 c19
-46 37 -79 41 -75 4 4 17 40 29 80 20 70 41 95 61 75 11 -11 -47 -185 -87
-265 -26 -51 -61 -74 -95 -63 -28 9 -23 33 9 40 56 12 57 34 6 156 -45 111
-49 143 -17 137 12 -2 30 -33 53 -85z m319 70 c28 -24 14 -51 -18 -33 -33 17
-76 9 -76 -14 0 -13 12 -23 39 -33 53 -18 76 -40 76 -74 0 -41 -41 -69 -101
-69 -30 0 -53 6 -64 16 -18 19 -14 41 6 35 35 -11 92 -12 101 -3 16 16 -5 38
-42 45 -68 14 -93 87 -44 126 33 26 94 28 123 4z m674 -4 c58 -45 58 -153 0
-198 -29 -24 -85 -27 -123 -8 -74 37 -73 172 2 214 35 19 92 16 121 -8z m137
6 c10 -12 15 -12 36 1 28 19 54 12 54 -15 0 -14 -10 -21 -37 -28 l-38 -9 -3
-87 -3 -88 -27 3 -27 3 -3 104 c-1 58 0 111 2 118 7 17 31 17 46 -2z m529 -7
c12 -12 23 -30 27 -40 8 -26 16 -22 47 23 17 24 34 39 44 37 28 -5 25 -22 -13
-71 l-36 -46 40 -53 c43 -56 45 -68 8 -68 -16 0 -32 13 -51 42 l-28 42 -36
-42 c-20 -23 -41 -42 -48 -42 -25 0 -24 23 4 58 47 59 47 59 13 112 -17 27
-29 54 -25 60 10 16 33 12 54 -12z m336 8 c11 -8 16 -19 12 -29 -5 -14 -11
-15 -31 -6 -62 29 -111 -32 -86 -106 13 -38 41 -52 84 -41 31 8 41 -7 20 -28
-9 -10 -33 -16 -58 -16 -112 0 -154 140 -65 215 34 28 93 34 124 11z m221 -9
c21 -19 27 -33 28 -68 l1 -44 -72 -3 c-78 -3 -90 -14 -53 -47 15 -14 31 -17
70 -13 43 4 50 3 50 -12 0 -21 -27 -30 -88 -30 -37 0 -50 6 -79 35 -34 34 -35
38 -31 92 4 48 10 61 37 85 41 36 98 38 137 5z m515 -6 c31 -31 39 -77 17 -99
-7 -7 -39 -12 -75 -12 -68 0 -80 -12 -43 -45 15 -14 31 -17 70 -13 37 4 50 2
50 -8 0 -20 -34 -34 -85 -34 -77 0 -126 64 -110 147 16 88 115 124 176 64z
m126 18 c8 -8 17 -8 31 0 30 16 73 13 94 -6 15 -14 18 -32 18 -120 l0 -103
-25 0 c-26 0 -29 8 -25 78 1 18 -1 51 -5 72 -6 33 -11 40 -30 40 -52 0 -55 -6
-55 -101 0 -87 0 -89 -24 -89 -32 0 -36 14 -36 136 0 102 0 104 23 104 13 0
28 -5 34 -11z m357 5 c9 -3 16 -17 16 -30 0 -21 -3 -23 -19 -14 -52 27 -101
-6 -101 -68 0 -56 31 -86 81 -79 44 6 56 -4 33 -27 -9 -10 -33 -16 -61 -16
-38 0 -50 5 -80 35 -33 33 -35 39 -31 84 5 50 29 93 63 110 23 11 76 14 99 5z
m231 -19 c19 -18 25 -35 25 -70 l0 -45 -75 0 -75 0 12 -25 c13 -29 44 -40 94
-32 28 5 34 3 34 -13 0 -10 -7 -21 -16 -24 -25 -10 -91 -7 -117 5 -74 33 -76
182 -3 218 40 19 95 13 121 -14z m-5673 -9 c10 5 10 4 1 -6 -7 -8 -23 -15 -35
-17 -17 -2 -19 -1 -9 6 8 5 10 14 5 22 -7 12 -5 12 9 1 9 -8 22 -10 29 -6z
m-4510 -66 c82 -64 45 -180 -57 -180 -36 0 -51 6 -72 26 -22 22 -25 32 -20 77
3 39 11 56 31 74 34 29 84 30 118 3z m4458 -14 c0 -2 -8 -10 -17 -17 -16 -13
-17 -12 -4 4 13 16 21 21 21 13z m-1382 -362 l-3 -275 -316 1 c-306 0 -316 0
-334 -20 -15 -16 -17 -26 -9 -48 l9 -27 328 -3 327 -2 0 -86 0 -85 -652 1
c-359 1 -658 1 -665 1 -22 -2 -36 -41 -24 -67 l11 -24 665 0 665 0 0 -295 0
-295 -565 0 -565 0 -32 38 c-72 83 -248 251 -320 306 l-78 58 0 549 0 549 780
0 780 0 -2 -276z m6233 -184 c30 -5 88 -27 129 -47 236 -115 339 -395 240
-652 -111 -287 -451 -413 -724 -268 -192 102 -299 313 -268 530 43 297 322
493 623 437z m-2333 -47 c-10 -2 -26 -2 -35 0 -10 3 -2 5 17 5 19 0 27 -2 18
-5z m-78 -12 c-72 -22 -120 -63 -139 -120 -39 -117 27 -220 152 -237 53 -8 61
-14 16 -14 -69 1 -154 59 -178 123 -23 61 -7 141 38 190 31 34 88 66 116 66
16 -1 15 -2 -5 -8z m148 -10 c34 -18 73 -61 54 -61 -4 0 -13 9 -19 20 -7 11
-30 28 -50 39 -21 11 -34 20 -30 21 4 0 24 -9 45 -19z m-365 -36 c-3 -9 -8
-14 -10 -11 -3 3 -2 9 2 15 9 16 15 13 8 -4z m-3616 -57 c-2 -13 -4 -5 -4 17
-1 22 1 32 4 23 2 -10 2 -28 0 -40z m-49 -15 c-10 -2 -28 -2 -40 0 -13 2 -5 4
17 4 22 1 32 -1 23 -4z m1441 -28 c138 -33 283 -137 360 -260 141 -223 125
-504 -41 -722 l-48 -62 50 -112 c55 -124 55 -126 38 -112 -7 6 -69 33 -138 61
l-125 50 -75 -25 c-241 -82 -538 25 -685 247 -158 237 -134 551 56 755 79 84
154 134 252 167 69 23 99 28 187 28 59 0 133 -7 169 -15z m2618 -67 c-3 -8 -6
-5 -6 6 -1 11 2 17 5 13 3 -3 4 -12 1 -19z m-27 -67 c-5 -11 -15 -23 -21 -27
-6 -3 -3 5 6 20 20 30 30 35 15 7z m-3983 -53 c-3 -8 -6 -5 -6 6 -1 11 2 17 5
13 3 -3 4 -12 1 -19z m3952 9 c-2 -1 -13 -9 -24 -17 -19 -14 -19 -14 -6 3 7 9
18 17 24 17 6 0 8 -1 6 -3z m-149 -137 c0 -5 -2 -10 -4 -10 -3 0 -8 5 -11 10
-3 6 -1 10 4 10 6 0 11 -4 11 -10z m-5366 -218 c165 -119 317 -270 453 -452
91 -122 169 -272 216 -415 83 -253 75 -433 -39 -887 -24 -97 -44 -197 -44
-222 0 -62 91 -315 357 -996 53 -135 129 -335 168 -445 l72 -200 -111 -5 c-88
-4 -121 -10 -158 -28 -52 -26 -107 -82 -136 -139 -18 -34 -224 -649 -234 -698
-6 -27 -24 56 -38 171 -101 844 -233 1591 -350 1985 -35 116 -68 262 -76 325
-7 69 5 143 63 369 49 193 63 270 63 340 -1 132 -56 290 -143 405 -23 30 -98
114 -167 185 -126 130 -180 199 -201 252 -11 29 -15 111 -5 120 2 3 18 -4 35
-16 20 -15 29 -28 26 -42 -2 -11 0 -17 6 -14 5 4 6 11 3 17 -4 6 -1 8 7 6 8
-3 13 -11 11 -17 -1 -7 2 -10 6 -7 13 8 154 -93 147 -104 -3 -5 0 -12 6 -16 8
-4 9 -3 5 4 -14 23 10 11 56 -28 34 -29 46 -46 43 -61 -4 -18 -2 -19 12 -8 13
12 19 9 42 -17 14 -17 51 -60 82 -95 60 -68 153 -198 146 -205 -2 -2 -21 21
-41 51 -21 30 -42 52 -47 49 -5 -3 -7 1 -4 8 6 14 -50 88 -66 88 -13 0 -1 -42
15 -55 7 -5 21 -26 31 -45 10 -19 28 -48 40 -65 13 -16 35 -55 50 -85 15 -30
36 -65 45 -77 40 -51 26 36 -17 110 -2 4 -1 7 2 7 9 0 64 -121 71 -157 7 -35
27 -58 43 -49 48 30 -10 227 -111 374 -16 23 -26 47 -22 54 4 6 3 8 -3 5 -6
-4 -34 23 -63 59 -29 36 -131 140 -227 232 -96 92 -186 182 -200 201 -27 35
-40 101 -29 146 l7 26 62 -53 c34 -30 96 -80 137 -113 151 -119 355 -320 438
-430 49 -66 148 -252 138 -262 -3 -4 -16 21 -73 145 -9 17 -19 32 -24 32 -5 0
-9 6 -9 13 0 29 -213 273 -230 262 -4 -2 -15 4 -25 15 -10 11 -14 20 -10 20 5
0 -6 16 -25 35 -25 26 -36 32 -43 22 -6 -9 -7 -8 -4 3 4 15 -41 57 -56 52 -5
-1 -6 2 -3 7 8 13 -82 84 -95 75 -7 -4 -9 -3 -6 3 6 9 -152 153 -167 153 -3 0
-6 -18 -6 -40 0 -50 29 -114 45 -100 8 7 12 5 12 -5 0 -8 -5 -11 -10 -8 -6 3
-7 1 -3 -6 6 -9 11 -9 21 -1 9 7 16 6 26 -7 12 -15 12 -16 -3 -10 -22 8 -23 3
-2 -17 8 -9 24 -16 35 -16 25 0 120 -65 111 -75 -4 -5 -2 -5 5 -1 6 3 42 -17
80 -45 83 -64 106 -86 98 -99 -3 -5 0 -7 8 -4 18 7 89 -54 80 -69 -3 -6 -1 -7
5 -3 7 4 12 3 12 -1 0 -5 13 -23 29 -40 20 -22 32 -28 39 -21 8 8 9 4 5 -12
-3 -12 -1 -25 4 -29 15 -9 105 -153 114 -181 6 -21 7 -21 8 -5 1 15 6 11 18
-15 23 -47 40 -64 46 -47 4 7 6 6 6 -4 1 -9 7 -22 15 -28 27 -23 37 18 21 90
-29 139 -124 302 -261 449 -49 52 -82 95 -78 102 4 7 3 8 -4 4 -7 -4 -59 38
-124 100 -62 58 -153 138 -203 176 -49 39 -92 75 -94 82 -2 6 9 -1 25 -15 33
-30 75 -54 87 -51 5 1 7 -1 4 -5 -2 -5 10 -20 28 -35 31 -27 33 -27 49 -9 15
17 13 20 -41 62 -68 53 -137 99 -145 99 -4 0 -9 -8 -11 -17 -3 -11 -5 -6 -6
10 l-1 29 38 -22 c20 -12 73 -47 116 -78z m5493 6 c-3 -8 -6 -5 -6 6 -1 11 2
17 5 13 3 -3 4 -12 1 -19z m340 -194 c204 -19 616 -95 600 -110 -3 -3 -29 1
-58 9 -30 8 -81 20 -114 26 -33 6 -107 20 -165 30 -119 22 -382 47 -640 60
l-175 9 200 -4 c110 -3 268 -12 352 -20z m-662 5 c-135 -10 -255 -24 -400 -49
-96 -17 -144 -28 -242 -56 -13 -3 -20 -10 -17 -15 3 -5 -2 -6 -10 -3 -18 7
-168 -64 -161 -76 3 -5 0 -12 -6 -16 -8 -4 -9 -3 -5 4 14 23 -11 11 -52 -24
-24 -20 -39 -41 -35 -47 3 -7 3 -9 -2 -5 -16 15 -45 -14 -105 -104 -75 -112
-113 -193 -145 -312 -75 -281 -103 -740 -58 -951 40 -187 85 -276 184 -369
161 -152 371 -220 819 -265 333 -34 509 -43 713 -40 120 3 183 1 160 -4 -108
-24 -813 14 -1098 59 -231 36 -424 103 -534 186 -146 110 -208 215 -251 423
-28 135 -33 242 -21 430 29 430 84 644 221 848 148 221 377 322 870 381 63 8
153 14 200 14 l85 -1 -110 -8z m-5557 -85 c20 -9 31 -18 24 -21 -37 -14 -54
-113 -31 -184 29 -92 67 -144 206 -285 123 -125 176 -187 208 -244 13 -24 0
-9 -43 49 -22 29 -103 117 -179 195 -136 139 -172 190 -202 285 -16 48 -13
121 4 155 9 17 12 33 7 38 -12 12 -43 -2 -35 -16 3 -6 3 -8 -2 -4 -5 5 -28
-22 -53 -60 -82 -122 -268 -291 -414 -375 -81 -47 -64 -29 27 28 160 101 296
231 386 370 30 46 55 84 57 84 1 1 19 -6 40 -15z m6905 -94 c10 -13 10 -13 -5
-2 -9 8 -23 10 -30 6 -7 -4 -10 -4 -6 1 4 4 -3 16 -15 27 -22 19 -22 19 11 1
19 -10 39 -25 45 -33z m-1038 -70 c519 -32 693 -74 846 -203 34 -29 78 -75 99
-104 20 -29 39 -51 41 -48 3 2 5 -4 6 -13 0 -9 13 -46 28 -82 42 -99 55 -185
55 -376 0 -180 -16 -333 -49 -475 -21 -89 -71 -226 -97 -267 -8 -12 -12 -28
-8 -35 4 -7 4 -9 -1 -5 -5 5 -19 -9 -33 -30 -70 -106 -226 -215 -373 -260
-203 -62 -532 -74 -898 -33 -190 22 -347 47 -305 50 12 0 44 -3 71 -9 242 -45
745 -68 923 -42 279 42 459 135 566 292 130 189 193 455 194 818 0 231 -28
354 -109 478 -120 184 -275 262 -608 304 -303 39 -876 52 -1118 26 -197 -22
-281 -50 -395 -132 -94 -68 -180 -211 -219 -369 -22 -86 -60 -400 -62 -506 -1
-35 -5 -77 -9 -94 -11 -44 -11 -16 0 135 19 260 48 446 89 561 16 45 28 87 27
93 -2 6 -1 7 2 3 2 -5 20 16 39 45 46 70 76 101 148 152 111 80 210 109 420
126 232 18 426 18 730 0z m1136 -2 c23 -26 24 -29 4 -22 -8 4 -15 10 -15 16 0
5 -4 7 -8 4 -5 -3 -9 1 -9 9 0 20 6 19 28 -7z m-1281 -88 c627 -26 826 -72
968 -224 71 -77 107 -142 133 -243 40 -157 35 -448 -13 -673 -81 -384 -233
-538 -598 -606 -203 -38 -700 -17 -1046 46 -412 74 -592 203 -649 465 -15 67
-17 107 -11 255 11 314 55 569 119 700 35 70 112 154 180 193 104 61 269 87
607 95 41 1 181 -3 310 -8z m1361 -7 c13 -16 12 -17 -3 -4 -10 7 -18 15 -18
17 0 8 8 3 21 -13z m23 -39 c3 -8 2 -12 -4 -9 -6 3 -10 10 -10 16 0 14 7 11
14 -7z m-7187 -59 c40 -58 100 -119 177 -182 45 -37 82 -70 84 -74 2 -4 40
-45 85 -91 88 -91 138 -151 149 -178 4 -10 16 -24 27 -32 12 -8 18 -17 16 -20
-3 -3 1 -8 10 -11 19 -8 13 22 -22 108 -38 93 -37 91 -26 80 20 -21 65 -138
74 -195 13 -82 -1 -183 -49 -355 -38 -135 -59 -224 -117 -495 -46 -214 -119
-387 -227 -532 -225 -303 -528 -433 -870 -373 -175 31 -418 130 -528 215 -77
60 -201 182 -272 268 l-60 73 79 -40 c60 -29 86 -49 101 -75 27 -46 128 -119
186 -136 57 -16 141 -8 187 16 19 10 37 18 41 19 3 0 10 4 15 9 5 5 3 6 -4 2
-17 -9 -16 -7 7 39 30 58 26 121 -9 177 -16 25 -26 50 -23 54 4 4 2 4 -5 0 -6
-3 -32 7 -56 24 -78 52 -184 70 -272 45 -34 -10 -309 188 -302 217 1 6 -5 12
-15 13 -20 4 -101 92 -171 187 l-27 37 29 46 c16 25 39 71 51 103 34 88 41
103 35 67 -3 -16 -24 -68 -47 -115 -23 -47 -43 -91 -44 -99 -4 -25 107 -166
120 -153 3 3 6 -2 6 -11 0 -9 5 -19 11 -22 7 -5 9 16 4 71 -5 62 -2 95 14 154
37 140 72 235 113 305 23 39 51 91 64 117 13 25 28 49 34 53 5 3 10 13 10 22
0 8 8 27 18 41 10 15 31 56 47 92 28 63 73 122 106 140 9 5 76 16 150 25 74 9
166 22 204 30 39 8 130 26 204 40 74 14 168 37 208 51 41 14 82 23 91 19 9 -3
13 -3 9 1 -3 4 19 20 51 37 78 41 124 73 212 151 41 36 80 65 87 66 7 0 20
-11 30 -25z m7243 -59 c0 -12 -5 -7 -19 24 -11 24 -11 24 3 6 9 -11 16 -24 16
-30z m29 -96 c0 -9 -4 -8 -9 5 -5 11 -9 27 -9 35 0 9 4 8 9 -5 5 -11 9 -27 9
-35z m-7774 11 c-15 -14 -164 -69 -231 -86 -202 -50 -435 -66 -611 -43 -57 8
-103 11 -103 8 -10 -174 -92 -409 -182 -523 -19 -24 -36 -63 -45 -104 -8 -35
-17 -62 -19 -60 -13 13 28 130 60 173 79 103 146 285 167 449 6 44 11 80 12
81 1 1 49 -5 107 -13 241 -33 585 11 781 101 57 26 80 32 64 17z m7782 -63
c-3 -8 -6 -5 -6 6 -1 11 2 17 5 13 3 -3 4 -12 1 -19z m22 -165 c1 -28 -2 -54
-6 -56 -5 -3 -8 41 -9 97 0 76 1 90 7 56 4 -25 8 -68 8 -97z m-6541 62 c-3 -3
-9 2 -12 12 -6 14 -5 15 5 6 7 -7 10 -15 7 -18z m6496 -262 c-35 -105 -50
-252 -36 -371 7 -56 8 -112 3 -132 -6 -26 -10 10 -15 130 -9 198 9 335 56 427
20 39 17 20 -8 -54z m-2729 -633 c76 -245 266 -386 621 -460 49 -10 77 -19 63
-19 -51 -2 -264 59 -347 99 -46 22 -89 37 -95 33 -7 -3 -9 -3 -5 2 4 4 -20 28
-52 54 -63 49 -128 128 -161 195 -26 53 -57 179 -59 236 -4 99 4 109 10 15 4
-55 15 -125 25 -155z m2682 58 c-3 -7 -5 -2 -5 12 0 14 2 19 5 13 2 -7 2 -19
0 -25z m-10 -40 c-3 -8 -6 -5 -6 6 -1 11 2 17 5 13 3 -3 4 -12 1 -19z m-46
-125 c-12 -20 -14 -14 -5 12 4 9 9 14 11 11 3 -2 0 -13 -6 -23z m-23 -58 c-6
-14 -13 -23 -15 -21 -5 5 15 46 22 46 3 0 -1 -11 -7 -25z m-4357 -31 c113 -71
449 -357 449 -381 0 -9 -17 -35 -39 -58 -43 -47 -80 -133 -91 -215 -7 -51 -7
-52 -9 -14 -2 70 44 183 98 242 17 18 31 37 31 42 0 30 -368 337 -386 322 -4
-4 -4 -1 0 6 4 7 0 15 -11 19 -10 4 -32 17 -49 30 -43 32 -124 42 -161 19
l-28 -17 25 22 c34 29 110 22 171 -17z m723 0 c9 -8 16 -23 17 -32 0 -9 1 -71
3 -137 2 -107 6 -131 38 -225 50 -147 55 -272 16 -402 -18 -61 -20 -37 -2 28
9 35 16 98 16 156 0 86 -5 110 -38 210 -36 106 -38 122 -40 246 -2 86 -7 138
-14 147 -19 23 -55 18 -89 -11 -49 -41 -71 -129 -71 -286 0 -138 -8 -168 -43
-168 -28 0 -53 -28 -84 -98 -21 -45 -25 -69 -26 -150 0 -91 -1 -93 -8 -37 -9
74 3 149 31 207 30 58 59 88 86 88 12 0 25 7 28 16 3 9 6 73 6 144 0 174 31
273 95 308 29 16 61 14 79 -4z m-6514 -39 c62 -31 105 -72 136 -127 l29 -53 3
-316 c3 -300 2 -318 -18 -371 -24 -65 -86 -128 -158 -161 -47 -22 -51 -22
-851 -25 -904 -3 -870 -5 -955 69 -25 22 -59 62 -74 87 l-27 47 0 325 0 325
28 57 c30 61 74 105 140 140 l42 23 775 5 c426 3 802 2 835 -1 33 -3 76 -14
95 -24z m5610 -9 c0 -8 12 -22 27 -31 44 -29 195 -155 243 -203 30 -30 21 -24
-30 19 -41 35 -114 95 -162 132 -47 38 -88 77 -91 88 -3 10 -1 17 4 13 5 -3 9
-11 9 -18z m4270 -41 c0 -5 -5 -3 -10 5 -5 8 -10 20 -10 25 0 6 5 3 10 -5 5
-8 10 -19 10 -25z m-3789 -22 c13 -16 12 -17 -3 -4 -10 7 -18 15 -18 17 0 8 8
3 21 -13z m3940 -36 c-13 -12 -20 -15 -15 -7 12 22 28 39 33 34 3 -3 -6 -15
-18 -27z m-4426 -24 c83 -55 135 -97 272 -220 67 -60 108 -90 118 -87 24 10
17 39 -20 84 -41 49 -46 63 -9 29 61 -57 70 -125 15 -124 -16 0 -27 3 -25 6 2
4 -24 31 -59 60 -34 30 -77 69 -97 87 -19 18 -40 30 -47 28 -6 -3 -10 0 -8 7
5 14 -100 98 -173 140 -41 23 -54 26 -76 17 -34 -12 -34 -41 -1 -122 14 -34
23 -63 21 -65 -8 -9 -49 106 -50 141 -1 33 3 42 24 53 36 18 38 18 115 -34z
m2047 -171 c144 -99 370 -162 703 -197 208 -22 215 -24 215 -45 0 -15 -11 -19
-62 -25 -218 -24 -401 -69 -563 -139 -55 -24 -130 -55 -167 -68 -103 -40 -202
-112 -339 -248 -127 -127 -252 -279 -354 -431 -31 -46 -61 -83 -66 -82 -4 2
-6 -5 -2 -15 17 -48 -23 20 -104 178 -94 181 -235 447 -255 479 -10 16 5 37
113 157 251 279 350 367 555 489 54 32 112 66 129 76 l29 18 61 -58 c33 -31
81 -72 107 -89z m-1432 113 c13 -14 21 -25 18 -25 -2 0 -15 11 -28 25 -13 14
-21 25 -18 25 2 0 15 -11 28 -25z m-4955 -72 c-7 -41 -26 -96 -31 -90 -2 2 0
19 5 38 5 19 12 46 15 62 9 41 18 33 11 -10z m74 -63 c124 -245 329 -497 491
-605 76 -50 183 -105 205 -105 19 0 19 -17 1 -89 -8 -31 -16 -76 -18 -101 -3
-42 -1 -45 23 -48 24 -3 28 3 61 90 20 51 43 119 52 151 11 38 21 57 29 54 7
-3 39 -10 71 -17 l59 -12 -7 -86 c-13 -166 -54 -272 -140 -356 -100 -100 -224
-146 -392 -146 -341 0 -677 227 -835 563 -38 82 -79 229 -78 277 1 23 3 27 6
13 5 -28 23 -29 112 -7 76 19 147 58 210 114 9 9 33 28 53 44 36 27 37 27 47
7 6 -10 17 -25 24 -33 29 -30 58 -79 52 -88 -3 -5 0 -7 8 -4 9 3 23 -10 40
-38 14 -24 47 -65 72 -93 26 -27 63 -67 82 -88 41 -44 147 -127 162 -127 6 0
11 -4 11 -8 0 -21 218 -105 267 -103 6 0 31 79 33 102 0 4 -42 28 -92 54 -100
50 -207 126 -278 196 -24 24 -48 43 -52 41 -4 -1 -7 4 -6 10 2 7 -3 12 -10 10
-6 -1 -11 2 -10 6 2 5 -35 61 -81 126 -86 122 -211 330 -211 353 0 7 -4 13
-10 13 -5 0 -10 5 -10 11 0 23 22 -6 59 -81z m8561 86 c0 -2 -8 -10 -17 -17
-16 -13 -17 -12 -4 4 13 16 21 21 21 13z m-4470 -66 c0 -5 -5 -10 -11 -10 -5
0 -7 5 -4 10 3 6 8 10 11 10 2 0 4 -4 4 -10z m4385 0 c-3 -5 -12 -10 -18 -10
-7 0 -6 4 3 10 19 12 23 12 15 0z m-4598 -37 c-3 -10 -5 -4 -5 12 0 17 2 24 5
18 2 -7 2 -21 0 -30z m433 -57 c60 -39 200 -182 199 -204 0 -16 -1 -16 -7 0
-14 35 -152 166 -231 219 -44 30 -83 60 -86 68 -3 8 14 -2 37 -20 24 -19 63
-48 88 -63z m-4449 -37 c-33 -53 -37 -64 -22 -54 5 3 12 1 16 -4 3 -6 -4 -8
-16 -6 -14 3 -35 -7 -58 -25 -19 -17 -40 -30 -45 -30 -5 0 9 13 32 29 42 31
94 99 107 141 5 15 10 20 13 12 2 -7 -10 -36 -27 -63z m4382 -15 c82 -53 237
-175 237 -187 0 -4 -10 2 -22 14 -13 11 -39 33 -58 48 -19 14 -42 32 -50 40
-43 41 -185 124 -221 128 -40 6 -40 6 -34 -24 9 -56 71 -172 133 -253 57 -73
165 -180 175 -173 6 3 7 1 4 -4 -8 -13 17 -36 28 -25 5 4 5 2 1 -5 -8 -14 112
-107 189 -146 61 -32 161 -49 235 -41 78 9 208 72 263 127 25 25 59 69 76 98
17 30 31 50 31 44 0 -5 -13 -33 -29 -61 -59 -102 -197 -195 -322 -215 -76 -12
-184 2 -247 33 -97 46 -277 203 -400 348 -63 75 -152 243 -152 289 0 23 32 32
68 19 13 -5 56 -29 95 -54z m3944 40 c-3 -3 -12 -4 -19 -1 -8 3 -5 6 6 6 11 1
17 -2 13 -5z m-40 -10 c-3 -3 -12 -4 -19 -1 -8 3 -5 6 6 6 11 1 17 -2 13 -5z
m-2780 -56 c-3 -8 -6 -5 -6 6 -1 11 2 17 5 13 3 -3 4 -12 1 -19z m-1490 -100
c-3 -7 -5 -2 -5 12 0 14 2 19 5 13 2 -7 2 -19 0 -25z m-4164 11 c-5 -5 -47
-16 -92 -23 -45 -7 -84 -15 -86 -18 -3 -3 -6 -28 -7 -56 -2 -29 -7 -52 -11
-52 -7 0 0 109 8 118 1 1 39 9 84 16 44 7 84 16 88 19 3 4 11 7 17 7 7 0 7 -3
-1 -11z m417 -33 c0 -2 -8 -10 -17 -17 -16 -13 -17 -12 -4 4 13 16 21 21 21
13z m3747 -98 c-3 -7 -5 -2 -5 12 0 14 2 19 5 13 2 -7 2 -19 0 -25z m904 -60
c5 -20 21 -51 35 -68 32 -37 24 -40 -10 -3 -25 27 -47 94 -45 135 2 22 2 22 6
-2 2 -14 9 -42 14 -62z m-904 -20 c-3 -7 -5 -2 -5 12 0 14 2 19 5 13 2 -7 2
-19 0 -25z m2773 -12 c0 -2 -20 -16 -44 -30 -137 -80 -221 -311 -228 -626 l-2
-95 -4 85 c-10 247 69 508 184 611 47 41 94 69 94 55z m-1783 -28 c-3 -8 -6
-5 -6 6 -1 11 2 17 5 13 3 -3 4 -12 1 -19z m2896 -105 c-13 -2 -33 -2 -45 0
-13 2 -3 4 22 4 25 0 35 -2 23 -4z m435 0 c-10 -2 -28 -2 -40 0 -13 2 -5 4 17
4 22 1 32 -1 23 -4z m59 1 c-3 -3 -12 -4 -19 -1 -8 3 -5 6 6 6 11 1 17 -2 13
-5z m76 -1 c-7 -2 -19 -2 -25 0 -7 3 -2 5 12 5 14 0 19 -2 13 -5z m265 0 c-10
-2 -28 -2 -40 0 -13 2 -5 4 17 4 22 1 32 -1 23 -4z m-4721 -55 c-2 -13 -4 -5
-4 17 -1 22 1 32 4 23 2 -10 2 -28 0 -40z m4816 45 c-7 -2 -19 -2 -25 0 -7 3
-2 5 12 5 14 0 19 -2 13 -5z m44 -40 c-43 -69 -76 -168 -88 -258 l-8 -60 4 65
c3 69 22 135 61 213 13 27 21 54 17 59 -3 6 -1 8 5 4 6 -3 13 -2 17 4 3 5 8
10 11 10 2 0 -6 -17 -19 -37z m-4306 -60 c13 -16 12 -17 -3 -4 -10 7 -18 15
-18 17 0 8 8 3 21 -13z m-554 -60 c-2 -16 -4 -5 -4 22 0 28 2 40 4 28 2 -13 2
-35 0 -50z m0 -155 c-2 -13 -4 -3 -4 22 0 25 2 35 4 23 2 -13 2 -33 0 -45z
m5483 -8 c-8 -5 -19 -10 -25 -10 -5 0 -3 5 5 10 8 5 20 10 25 10 6 0 3 -5 -5
-10z m-2736 -13 c15 -11 17 -24 13 -75 l-5 -62 64 0 63 0 3 68 3 67 30 0 30 0
3 -150 c3 -184 1 -195 -38 -195 l-30 0 0 78 0 79 -65 2 -65 2 0 -76 0 -76 -32
3 -33 3 4 165 c4 180 10 200 55 167z m2696 -5 c0 -4 -10 -12 -22 -17 -13 -6
-22 -17 -20 -24 1 -7 -2 -10 -7 -7 -14 9 -72 -44 -64 -57 3 -7 3 -9 -2 -5 -12
11 -62 -64 -109 -161 -41 -85 -41 -87 -41 -198 0 -62 -3 -105 -7 -95 -4 9 -7
51 -7 94 -2 143 63 285 185 406 68 66 94 84 94 64z m-2137 -155 c-2 -139 -1
-147 18 -147 14 0 19 -7 19 -25 0 -33 -40 -44 -75 -21 -25 16 -25 17 -25 175
0 144 2 160 18 164 46 13 47 10 45 -146z m1454 76 c-3 -10 -5 -2 -5 17 0 19 2
27 5 18 2 -10 2 -26 0 -35z m-926 14 c84 -56 93 -195 18 -264 -28 -25 -93 -42
-161 -43 l-48 0 0 165 0 165 79 0 c65 0 84 -4 112 -23z m561 3 c2 -5 2 -84 0
-175 l-3 -165 -29 0 c-20 0 -30 5 -30 15 0 12 -4 12 -29 -2 -24 -14 -32 -15
-60 -3 -18 7 -38 25 -46 41 -19 36 -19 122 0 159 19 37 43 50 94 50 l41 0 0
45 c0 43 1 45 29 45 16 0 31 -4 33 -10z m-4395 -62 c-2 -13 -4 -5 -4 17 -1 22
1 32 4 23 2 -10 2 -28 0 -40z m3170 17 c26 -18 47 -77 39 -111 -6 -23 -10 -24
-77 -24 -61 0 -70 -2 -67 -17 5 -27 48 -44 91 -37 36 6 38 4 35 -17 -7 -49
-109 -49 -158 -1 -51 51 -47 159 7 201 31 25 99 28 130 6z m278 -5 c75 8 118
-11 136 -58 6 -15 9 -51 6 -81 -3 -46 -9 -59 -36 -83 -25 -22 -41 -28 -77 -28
-29 0 -43 -4 -39 -10 4 -6 4 -29 0 -51 -6 -36 -10 -40 -33 -37 l-27 3 -3 165
c-1 90 0 171 3 178 3 10 13 12 28 7 12 -4 31 -6 42 -5z m693 -153 l3 -127 -26
0 c-14 0 -28 7 -31 15 -5 11 -11 12 -24 5 -31 -16 -79 -11 -100 10 -19 19 -20
31 -18 123 l3 102 28 3 27 3 0 -96 c0 -105 8 -118 56 -96 25 11 25 13 22 104
l-3 94 30 -7 30 -6 3 -127z m464 93 c30 -23 51 -69 46 -102 -3 -21 -8 -23 -73
-24 -38 -1 -72 -3 -74 -5 -2 -2 -1 -14 3 -26 9 -27 42 -37 97 -30 33 4 39 2
39 -14 0 -41 -92 -53 -148 -19 -70 43 -82 159 -23 212 38 34 96 38 133 8z
m-4605 -67 c-2 -16 -4 -5 -4 22 0 28 2 40 4 28 2 -13 2 -35 0 -50z m3230 35
c-3 -8 -6 -5 -6 6 -1 11 2 17 5 13 3 -3 4 -12 1 -19z m1190 -50 c-3 -8 -6 -5
-6 6 -1 11 2 17 5 13 3 -3 4 -12 1 -19z m-1907 -34 c0 -8 -4 -12 -10 -9 -5 3
-10 10 -10 16 0 5 5 9 10 9 6 0 10 -7 10 -16z m64 -69 c9 -18 15 -53 15 -77
-2 -42 -2 -42 -9 13 -7 53 -33 109 -51 109 -5 0 -9 5 -9 12 0 18 37 -20 54
-57z m1957 28 c13 -16 12 -17 -3 -4 -10 7 -18 15 -18 17 0 8 8 3 21 -13z
m-1966 -239 c-22 -77 -26 -64 -6 19 9 37 17 60 19 52 2 -8 -4 -40 -13 -71z
m2644 -64 c3 -3 7 -11 9 -19 6 -27 207 -319 216 -313 5 3 6 0 2 -6 -11 -18 73
-135 91 -128 13 5 14 4 3 -9 -15 -18 -16 -17 -136 165 -48 74 -105 159 -127
188 -38 53 -87 142 -87 158 0 5 6 0 12 -11 6 -11 14 -22 17 -25z m-2672 -47
c-3 -10 -5 -2 -5 17 0 19 2 27 5 18 2 -10 2 -26 0 -35z m-3877 -169 c23 -212
33 -281 56 -392 l18 -82 -64 -194 -64 -194 -87 67 c-48 37 -107 85 -132 106
-24 22 -71 63 -105 90 -73 60 -75 70 -36 226 31 123 93 261 157 344 51 68 147
162 192 188 22 13 19 9 -10 -15 -98 -80 -211 -211 -199 -230 4 -7 2 -8 -4 -4
-11 7 -17 -6 -13 -27 1 -5 -3 -6 -8 -3 -11 7 -23 -22 -14 -36 3 -6 2 -8 -4 -5
-20 12 -94 -207 -109 -320 -6 -49 -5 -53 30 -88 20 -20 41 -33 46 -30 6 4 9 1
8 -5 -2 -7 5 -17 15 -23 10 -7 37 -30 60 -52 62 -58 206 -166 210 -157 14 22
37 124 31 134 -4 6 -3 8 3 5 6 -4 25 40 48 109 l37 116 -21 102 c-28 137 -80
567 -67 555 4 -4 16 -87 26 -185z m7234 160 c3 -8 2 -12 -4 -9 -6 3 -10 10
-10 16 0 14 7 11 14 -7z m-3331 -119 c4 -31 3 -41 -2 -25 -4 14 -11 48 -14 75
-4 31 -3 41 2 25 4 -14 11 -48 14 -75z m3417 -70 c0 -5 -5 -3 -10 5 -5 8 -10
20 -10 25 0 6 5 3 10 -5 5 -8 10 -19 10 -25z m-3403 -17 c-3 -7 -5 -2 -5 12 0
14 2 19 5 13 2 -7 2 -19 0 -25z m10 -55 c-3 -10 -5 -4 -5 12 0 17 2 24 5 18 2
-7 2 -21 0 -30z m2540 5 c-3 -8 -6 -5 -6 6 -1 11 2 17 5 13 3 -3 4 -12 1 -19z
m151 -13 c-3 -3 -9 2 -12 12 -6 14 -5 15 5 6 7 -7 10 -15 7 -18z m739 -46 c-3
-10 0 -19 6 -19 6 0 8 -2 5 -5 -2 -3 -36 2 -74 10 -38 8 -91 15 -119 15 -75 0
-183 -26 -229 -55 l-41 -26 28 25 c15 14 53 33 85 43 63 19 208 23 286 9 l49
-9 -6 34 c-5 27 -4 30 4 16 6 -10 9 -27 6 -38z m-3420 9 c-3 -8 -6 -5 -6 6 -1
11 2 17 5 13 3 -3 4 -12 1 -19z m10 -50 c-3 -7 -5 -2 -5 12 0 14 2 19 5 13 2
-7 2 -19 0 -25z m2724 15 c13 -16 12 -17 -3 -4 -10 7 -18 15 -18 17 0 8 8 3
21 -13z m-234 -45 c-3 -8 -6 -5 -6 6 -1 11 2 17 5 13 3 -3 4 -12 1 -19z
m-2469 -63 c0 -16 -2 -15 -8 5 -4 14 -8 36 -8 50 0 22 1 22 8 -5 4 -16 8 -39
8 -50z m2459 23 c-3 -8 -6 -5 -6 6 -1 11 2 17 5 13 3 -3 4 -12 1 -19z m867 7
c39 -8 74 -19 79 -24 6 -6 -12 -3 -39 5 -72 22 -182 26 -250 8 -64 -16 -151
-70 -187 -115 -12 -15 -34 -43 -48 -61 -15 -18 -73 -96 -130 -173 -56 -77
-124 -169 -151 -205 -26 -36 -48 -68 -48 -72 0 -4 15 -15 33 -24 17 -9 53 -33
79 -54 51 -40 159 -162 151 -170 -3 -3 -12 6 -21 20 -36 55 -136 149 -196 184
l-65 38 106 146 c249 345 290 394 362 445 91 63 196 79 325 52z m-3295 -146
c12 -51 19 -94 17 -96 -2 -2 -13 37 -25 87 -23 99 -23 100 -17 100 2 0 14 -41
25 -91z m3388 54 c-3 -10 -5 -4 -5 12 0 17 2 24 5 18 2 -7 2 -21 0 -30z
m-3423 -308 c65 -233 82 -281 138 -383 34 -61 39 -78 29 -91 -6 -9 -24 -42
-39 -74 -25 -52 -34 -60 -87 -86 -141 -67 -352 -229 -551 -423 l-151 -148 -72
0 c-66 0 -72 2 -66 18 27 67 82 227 250 726 l192 570 64 26 c69 28 135 70 184
116 l30 29 12 -40 c6 -22 36 -130 67 -240z m3413 233 c-3 -7 -5 -2 -5 12 0 14
2 19 5 13 2 -7 2 -19 0 -25z m-647 -11 c0 -2 -10 -12 -22 -23 l-23 -19 19 23
c18 21 26 27 26 19z m-11282 -62 c57 -9 113 -20 125 -26 18 -8 15 -8 -13 -4
-176 29 -238 37 -320 40 -115 5 -154 -2 -157 -30 -1 -11 -13 -90 -27 -175 -14
-85 -28 -179 -32 -208 -4 -29 -9 -50 -12 -48 -5 6 8 105 38 291 11 66 21 131
23 144 2 14 12 28 23 33 27 12 231 2 352 -17z m8659 -285 c4 -4 29 -15 56 -25
26 -10 46 -20 44 -22 -2 -2 -29 6 -59 18 l-55 21 -37 128 c-20 71 -36 134 -35
142 0 7 18 -47 39 -121 21 -74 42 -137 47 -141z m3234 243 c-12 -20 -14 -14
-5 12 4 9 9 14 11 11 3 -2 0 -13 -6 -23z m-11652 -14 c137 -38 341 -133 341
-158 0 -3 -15 -58 -34 -121 -18 -63 -39 -140 -46 -172 l-13 -56 -141 -4 c-122
-3 -148 -7 -194 -27 -37 -17 -52 -29 -50 -40 2 -10 11 -15 23 -12 42 8 265 3
370 -8 61 -7 236 -37 390 -66 320 -62 558 -101 865 -144 386 -54 569 -63 675
-36 32 9 149 62 259 119 234 121 332 158 420 157 238 -1 236 -1 312 -32 183
-76 370 -264 469 -471 37 -77 44 -118 21 -137 -19 -16 -31 -3 -107 121 -149
241 -369 409 -561 429 -44 4 -86 5 -94 2 -31 -12 -11 -29 54 -46 134 -35 286
-129 393 -245 69 -75 142 -189 134 -210 -3 -7 0 -10 5 -7 5 3 18 -12 30 -35
l20 -40 -48 0 c-52 0 -92 27 -76 51 4 7 3 10 -3 6 -6 -4 -36 27 -68 68 -54 71
-141 155 -212 203 -130 90 -393 159 -393 104 0 -14 18 -24 73 -41 193 -62 325
-150 445 -301 l72 -90 -61 0 c-60 0 -62 1 -142 66 -87 69 -224 144 -312 170
-71 20 -179 16 -183 -8 -3 -13 17 -23 95 -47 96 -30 210 -88 294 -150 l43 -31
-102 0 c-87 0 -109 3 -145 22 -60 32 -183 32 -248 0 -44 -21 -55 -22 -353 -22
-250 0 -312 -3 -335 -15 -16 -8 -31 -12 -34 -9 -3 3 -8 0 -13 -7 -5 -8 -3 -10
6 -4 7 4 2 -6 -11 -24 -27 -37 -38 -42 -15 -6 23 35 7 39 -85 25 -192 -29
-441 -41 -904 -44 -615 -5 -907 11 -1095 59 -146 38 -281 139 -336 252 -27 54
-29 68 -32 206 -4 172 5 238 55 397 33 104 55 149 91 188 6 7 12 17 12 21 0 4
13 17 28 28 35 26 137 38 297 37 103 -1 236 -17 259 -32 6 -3 16 -7 22 -8 6
-1 38 -10 70 -20 70 -22 87 -23 96 -9 5 6 8 1 8 -10 1 -16 2 -17 9 -5 18 32
23 61 10 58 -7 -2 -13 3 -14 9 0 7 -9 19 -20 26 -36 23 -188 85 -285 115 -111
35 -111 42 -1 11z m10648 -41 c-3 -8 -6 -5 -6 6 -1 11 2 17 5 13 3 -3 4 -12 1
-19z m-2057 -253 c19 -7 28 -13 20 -13 -8 0 -31 6 -50 13 -19 7 -28 13 -20 13
8 0 31 -6 50 -13z m2027 9 c-3 -3 -12 -4 -19 -1 -8 3 -5 6 6 6 11 1 17 -2 13
-5z m133 2 c0 -9 -32 -36 -42 -36 -6 0 0 9 13 20 25 21 29 23 29 16z m-2045
-41 l50 -15 -45 7 c-48 6 -96 21 -70 22 8 0 38 -6 65 -14z m88 -22 c-7 -2 -19
-2 -25 0 -7 3 -2 5 12 5 14 0 19 -2 13 -5z m2617 3 c0 -2 -8 -10 -17 -17 -16
-13 -17 -12 -4 4 13 16 21 21 21 13z m-2557 -13 c-7 -2 -21 -2 -30 0 -10 3 -4
5 12 5 17 0 24 -2 18 -5z m65 -10 c-10 -2 -26 -2 -35 0 -10 3 -2 5 17 5 19 0
27 -2 18 -5z m1612 -4 c70 -11 142 -30 136 -36 -2 -2 -30 3 -62 12 -97 25
-248 30 -324 10 -91 -24 -172 -65 -165 -83 4 -12 3 -12 -9 -3 -12 10 -26 1
-80 -52 -67 -65 -105 -131 -106 -178 0 -25 33 -79 49 -79 4 0 22 20 40 45 39
54 147 143 216 178 54 27 149 57 174 56 9 0 -12 -8 -45 -18 -137 -39 -278
-133 -334 -223 -19 -29 -35 -55 -36 -56 -2 -2 -14 4 -28 15 -28 21 -46 54 -46
87 0 44 51 125 117 186 138 126 302 172 503 139z m-1517 -6 c-13 -2 -33 -2
-45 0 -13 2 -3 4 22 4 25 0 35 -2 23 -4z m2357 4 c0 -2 -19 -21 -42 -42 l-43
-40 40 43 c36 39 45 47 45 39z m-2207 -14 c-24 -2 -62 -2 -85 0 -24 2 -5 4 42
4 47 0 66 -2 43 -4z m420 0 c-7 -2 -19 -2 -25 0 -7 3 -2 5 12 5 14 0 19 -2 13
-5z m-225 -10 c-21 -2 -55 -2 -75 0 -21 2 -4 4 37 4 41 0 58 -2 38 -4z
m-10043 -78 c-3 -31 -9 -54 -12 -52 -2 3 -1 31 2 62 4 31 10 54 12 51 3 -3 2
-30 -2 -61z m11405 55 c18 -12 2 -12 -25 0 -13 6 -15 9 -5 9 8 0 22 -4 30 -9z
m48 -19 c11 -7 10 -9 -3 -14 -9 -4 -14 -3 -10 2 3 5 -1 12 -7 14 -7 3 -8 6 -3
6 6 0 16 -3 23 -8z m512 -14 c0 -2 -10 -12 -22 -23 l-23 -19 19 23 c18 21 26
27 26 19z m-828 -86 c-6 -32 -11 -35 -90 -62 -34 -11 -60 -25 -57 -30 4 -5 0
-6 -8 -3 -15 5 -107 -54 -147 -95 -40 -42 -79 -98 -100 -143 -11 -24 -20 -36
-20 -28 0 29 64 126 119 180 60 59 143 107 229 136 57 18 72 35 52 59 -9 11
-8 14 7 12 15 -1 18 -7 15 -26z m-11166 -116 c-8 -55 -14 -86 -15 -68 -1 38
21 192 25 178 2 -5 -3 -55 -10 -110z m11621 -37 c-3 -8 -6 -5 -6 6 -1 11 2 17
5 13 3 -3 4 -12 1 -19z m-10 -50 c-3 -8 -6 -5 -6 6 -1 11 2 17 5 13 3 -3 4
-12 1 -19z m-11621 -146 c1 -116 11 -183 39 -257 6 -14 5 -17 -3 -10 -37 35
-73 395 -40 395 2 0 3 -57 4 -128z m11268 109 c12 -5 1 -7 -30 -8 -27 0 -75
-9 -107 -20 -32 -11 -54 -16 -48 -10 10 10 127 46 151 46 8 0 23 -4 34 -8z
m327 -18 c-12 -20 -14 -14 -5 12 4 9 9 14 11 11 3 -2 0 -13 -6 -23z m-305 -41
c-3 -5 -18 -13 -33 -17 -36 -8 -174 -74 -190 -90 -6 -7 -9 -16 -5 -20 4 -5 2
-5 -4 -2 -16 9 -88 -68 -79 -84 5 -8 4 -10 -4 -5 -16 10 -41 -53 -41 -104 0
-37 3 -42 33 -55 22 -10 26 -14 13 -15 -34 0 -56 29 -56 74 1 100 90 204 230
268 47 22 96 45 110 52 27 14 36 13 26 -2z m-2229 -14 c-3 -8 -6 -5 -6 6 -1
11 2 17 5 13 3 -3 4 -12 1 -19z m1989 9 c-68 -43 -139 -114 -177 -177 -38 -64
-43 -69 -63 -59 -29 16 -56 40 -56 52 0 6 8 1 18 -10 9 -11 26 -25 37 -30 18
-10 24 -4 54 48 19 33 60 83 90 112 31 29 55 55 53 59 -1 4 4 5 12 2 8 -3 17
-1 21 5 3 6 12 11 18 10 7 0 3 -6 -7 -12z m444 -71 c0 -2 -8 -10 -17 -17 -16
-13 -17 -12 -4 4 13 16 21 21 21 13z m-743 -73 c-2 -16 -4 -5 -4 22 0 28 2 40
4 28 2 -13 2 -35 0 -50z m693 37 c-8 -5 -19 -10 -25 -10 -5 0 -3 5 5 10 8 5
20 10 25 10 6 0 3 -5 -5 -10z m-2403 -32 c-3 -8 -6 -5 -6 6 -1 11 2 17 5 13 3
-3 4 -12 1 -19z m2358 13 c-6 -5 -21 -11 -35 -15 -21 -5 -20 -3 5 9 35 17 42
18 30 6z m-2378 -228 c-3 -10 -5 -2 -5 17 0 19 2 27 5 18 2 -10 2 -26 0 -35z
m-8951 -5 c26 -50 104 -128 154 -153 48 -24 172 -54 237 -57 l38 -1 -33 -4
c-53 -7 -191 26 -254 59 -52 28 -109 84 -151 150 -17 28 -21 38 -12 38 2 0 12
-14 21 -32z m2451 -175 c-3 -10 -5 -4 -5 12 0 17 2 24 5 18 2 -7 2 -21 0 -30z
m-14 -30 c-7 -2 -21 -2 -30 0 -10 3 -4 5 12 5 17 0 24 -2 18 -5z m-96 -10
c-20 -2 -52 -2 -70 0 -17 2 0 4 38 4 39 0 53 -2 32 -4z m-1492 -24 c118 -6
109 -7 -60 -2 -110 3 -234 9 -275 13 -83 9 84 4 335 -11z m1305 10 c-47 -4
-119 -7 -160 -6 l-75 1 90 6 c50 3 122 6 160 7 l70 0 -85 -8z m-380 -19 c-80
-4 -287 -7 -460 -6 l-315 1 325 5 c179 3 386 6 460 6 l135 0 -145 -6z"/>
<path d="M9710 9591 c0 -5 -10 -12 -22 -14 -22 -4 -21 -4 2 -5 14 -1 34 5 44
13 19 15 19 15 -2 15 -12 0 -22 -4 -22 -9z"/>
<path d="M9037 8746 c-10 -8 -14 -16 -10 -19 5 -3 14 3 21 14 14 22 13 23 -11
5z"/>
<path d="M12139 9411 c-23 -18 -24 -25 -24 -134 0 -139 13 -167 85 -179 83
-14 121 27 128 139 6 84 -5 150 -29 174 -27 27 -127 27 -160 0z"/>
<path d="M11217 9423 c-4 -3 -7 -37 -7 -75 l0 -68 79 0 c92 0 102 7 104 75 3
62 -16 75 -103 75 -37 0 -70 -3 -73 -7z"/>
<path d="M11670 9355 l0 -75 75 0 c91 0 115 17 115 79 0 56 -25 71 -117 71
l-73 0 0 -75z"/>
<path d="M12600 9361 l0 -71 68 0 c80 0 100 12 108 60 9 58 -11 74 -100 78
l-76 4 0 -71z"/>
<path d="M14071 9411 c-39 -39 -38 -236 1 -286 16 -21 28 -25 74 -25 31 0 64
4 74 10 26 14 43 100 39 199 -4 73 -7 85 -28 102 -33 27 -133 27 -160 0z"/>
<path d="M10490 8588 c-24 -9 -26 -40 -5 -58 25 -21 65 3 65 38 0 29 -18 36
-60 20z"/>
<path d="M10897 8583 c-14 -13 -6 -43 13 -53 28 -15 60 4 60 35 0 22 -5 25
-33 25 -19 0 -37 -3 -40 -7z"/>
<path d="M12169 8673 c-8 -9 -14 -37 -14 -63 0 -56 17 -80 56 -80 34 0 49 23
49 77 0 69 -56 110 -91 66z"/>
<path d="M13392 8678 c-7 -7 -12 -20 -12 -30 0 -15 9 -18 50 -18 52 0 58 7 40
41 -12 22 -59 26 -78 7z"/>
<path d="M13902 8678 c-7 -7 -12 -20 -12 -30 0 -15 9 -18 50 -18 52 0 58 7 40
41 -12 22 -59 26 -78 7z"/>
<path d="M14616 8668 c-24 -34 -20 -38 39 -38 30 0 55 2 55 4 0 3 -4 16 -10
30 -13 34 -62 36 -84 4z"/>
<path d="M6280 8281 c-5 -11 -10 -26 -10 -35 0 -40 12 -41 623 -38 l587 2 6
27 c16 61 44 58 -604 61 -576 2 -591 2 -602 -17z m32 2 c-6 -2 -9 -10 -6 -15
4 -7 2 -8 -5 -4 -13 9 -5 26 12 25 9 0 8 -2 -1 -6z m-8 -49 c3 -8 2 -12 -4 -9
-6 3 -10 10 -10 16 0 14 7 11 14 -7z"/>
<path d="M6287 7962 c-21 -23 -22 -56 -3 -71 20 -16 472 -16 492 0 20 16 17
53 -4 72 -16 15 -48 17 -244 17 -205 0 -226 -2 -241 -18z m306 -69 c-7 -2 -19
-2 -25 0 -7 3 -2 5 12 5 14 0 19 -2 13 -5z"/>
<path d="M6292 7384 c-25 -17 -29 -56 -7 -74 10 -9 142 -12 526 -12 485 -1
513 0 526 18 15 21 8 53 -15 72 -12 9 -130 12 -512 12 -432 0 -498 -2 -518
-16z m5 -26 c-2 -7 0 -22 5 -33 9 -19 8 -19 -6 -2 -8 11 -12 25 -9 33 6 17 16
19 10 2z m1010 -44 c-3 -3 -12 -4 -19 -1 -8 3 -5 6 6 6 11 1 17 -2 13 -5z"/>
<path d="M6170 7163 c0 -6 8 -17 18 -24 16 -13 16 -13 2 6 -8 11 -16 22 -17
24 -2 2 -3 0 -3 -6z"/>
<path d="M6370 7006 c0 -2 8 -10 18 -17 15 -13 16 -12 3 4 -13 16 -21 21 -21
13z"/>
<path d="M5816 6898 c3 -5 10 -6 15 -3 13 9 11 12 -6 12 -8 0 -12 -4 -9 -9z"/>
<path d="M6250 6896 c0 -2 8 -10 18 -17 15 -13 16 -12 3 4 -13 16 -21 21 -21
13z"/>
<path d="M5766 6845 c4 -8 11 -15 16 -15 6 0 5 6 -2 15 -7 8 -14 15 -16 15 -2
0 -1 -7 2 -15z"/>
<path d="M6142 6659 c13 -20 28 -45 34 -55 8 -13 15 -16 22 -9 7 7 -5 25 -35
55 -44 44 -44 44 -21 9z"/>
<path d="M6449 6483 c-13 -16 -12 -17 4 -4 9 7 17 15 17 17 0 8 -8 3 -21 -13z"/>
<path d="M6421 6244 c0 -11 3 -14 6 -6 3 7 2 16 -1 19 -3 4 -6 -2 -5 -13z"/>
<path d="M6510 6181 c0 -6 4 -13 10 -16 6 -3 7 1 4 9 -7 18 -14 21 -14 7z"/>
<path d="M6426 6172 c-2 -4 4 -8 14 -8 10 0 16 4 14 8 -3 4 -9 8 -14 8 -5 0
-11 -4 -14 -8z"/>
<path d="M6141 5404 c0 -11 3 -14 6 -6 3 7 2 16 -1 19 -3 4 -6 -2 -5 -13z"/>
<path d="M6920 4461 c0 -6 4 -13 10 -16 6 -3 7 1 4 9 -7 18 -14 21 -14 7z"/>
<path d="M6491 3584 c0 -11 3 -14 6 -6 3 7 2 16 -1 19 -3 4 -6 -2 -5 -13z"/>
<path d="M10663 6301 c-48 -22 -98 -85 -114 -143 -14 -55 -8 -109 14 -122 16
-9 23 -6 45 24 66 85 98 110 140 110 49 0 87 -29 133 -100 35 -55 52 -65 80
-50 23 13 25 48 4 118 -43 145 -180 218 -302 163z"/>
<path d="M11739 6256 c-64 -23 -97 -54 -133 -128 -37 -73 -45 -115 -24 -136
21 -21 35 -14 105 58 62 62 74 70 107 70 54 0 91 -31 127 -106 27 -59 33 -65
57 -62 26 3 27 6 30 65 5 110 -63 217 -155 242 -48 14 -69 13 -114 -3z"/>
<path d="M10782 5718 c-39 -39 17 -175 108 -268 197 -200 534 -200 743 -1 62
59 117 141 117 177 0 45 -47 56 -136 29 -27 -8 -92 -22 -144 -31 -172 -30
-397 0 -568 75 -76 34 -101 38 -120 19z"/>
<path d="M5616 6472 c-3 -5 1 -9 9 -9 8 0 12 4 9 9 -3 4 -7 8 -9 8 -2 0 -6 -4
-9 -8z"/>
<path d="M5722 6471 c-11 -7 -11 -9 0 -14 9 -3 15 1 15 9 0 8 -1 14 -1 14 -1
0 -7 -4 -14 -9z"/>
<path d="M5665 6420 c-41 -45 12 -188 104 -281 103 -103 263 -158 321 -111 24
20 24 22 10 49 -10 18 -45 44 -95 71 -44 23 -103 65 -131 93 -48 47 -129 174
-120 188 2 3 -13 7 -33 9 -27 2 -43 -3 -56 -18z"/>
<path d="M5409 6404 c-14 -17 -58 -157 -59 -186 0 -28 36 -22 58 10 45 65 65
155 40 180 -16 16 -23 15 -39 -4z"/>
<path d="M5187 6399 c-9 -5 -22 -7 -29 -3 -7 4 -8 3 -4 -4 9 -16 -75 -68 -139
-87 -84 -26 -172 -29 -261 -11 -84 17 -117 13 -143 -17 -55 -67 95 -139 287
-139 92 0 171 18 229 52 19 11 39 17 45 14 6 -4 8 -2 5 3 -4 6 3 19 14 29 79
71 75 209 -4 163z"/>
<path d="M5256 6323 c-6 -14 -5 -15 5 -6 7 7 10 15 7 18 -3 3 -9 -2 -12 -12z"/>
<path d="M5630 6331 c0 -6 4 -13 10 -16 6 -3 7 1 4 9 -7 18 -14 21 -14 7z"/>
<path d="M5855 6280 c10 -11 20 -20 23 -20 3 0 -3 9 -13 20 -10 11 -20 20 -23
20 -3 0 3 -9 13 -20z"/>
<path d="M5236 6263 c-6 -14 -5 -15 5 -6 7 7 10 15 7 18 -3 3 -9 -2 -12 -12z"/>
<path d="M4580 6223 c0 -6 5 -15 10 -18 8 -5 8 -11 1 -19 -8 -9 -7 -13 3 -13
16 0 15 13 -2 42 -6 11 -12 15 -12 8z"/>
<path d="M6116 6088 c3 -4 9 -8 15 -8 5 0 9 4 9 8 0 5 -7 9 -15 9 -8 0 -12 -4
-9 -9z"/>
<path d="M5009 5903 c-12 -16 -12 -17 2 -6 9 7 20 9 24 5 5 -4 5 -1 1 6 -9 16
-11 15 -27 -5z"/>
<path d="M4979 5905 c-1 -3 -2 -8 -3 -12 -1 -5 -5 -15 -10 -23 -7 -12 -6 -13
4 -3 13 12 23 43 14 43 -2 0 -5 -2 -5 -5z"/>
<path d="M5030 5883 c-8 -2 -26 -27 -40 -55 -32 -65 -75 -91 -142 -85 -59 5
-89 25 -134 87 -37 51 -51 59 -72 38 -19 -19 -14 -58 13 -103 47 -80 126 -120
225 -113 50 4 66 10 113 47 57 43 87 90 87 133 0 28 -28 56 -50 51z"/>
<path d="M5436 5795 c-25 -25 -21 -175 9 -334 27 -142 24 -174 -17 -184 -42
-12 -72 -7 -141 23 -74 31 -97 30 -97 -4 0 -54 110 -116 205 -115 73 0 121 22
152 68 30 45 29 61 -12 226 -20 78 -39 182 -43 235 -6 76 -10 95 -23 98 -9 2
-24 -4 -33 -13z"/>
<path d="M5611 5754 c-12 -15 -21 -35 -21 -44 0 -33 99 -138 146 -156 103 -39
217 12 239 108 5 19 1 32 -15 48 l-22 22 -48 -52 c-46 -50 -51 -52 -87 -47
-41 7 -93 54 -125 115 -21 39 -40 40 -67 6z"/>
<path d="M4866 5527 c-99 -37 -106 -79 -9 -59 67 14 103 36 103 62 0 25 -19
25 -94 -3z"/>
<path d="M4011 5251 c-8 -5 -9 -11 -3 -15 5 -3 12 1 16 9 6 17 6 18 -13 6z"/>
<path d="M4609 5017 c6 -8 7 -18 3 -22 -4 -5 -1 -5 6 -1 10 6 10 11 1 22 -6 8
-14 14 -16 14 -3 0 0 -6 6 -13z"/>
<path d="M4555 5010 c3 -5 8 -10 11 -10 2 0 4 5 4 10 0 6 -5 10 -11 10 -5 0
-7 -4 -4 -10z"/>
<path d="M4583 5005 c0 -8 4 -12 9 -9 5 3 6 10 3 15 -9 13 -12 11 -12 -6z"/>
<path d="M5000 5006 c-65 -18 -103 -40 -139 -81 -33 -38 -40 -72 -16 -81 8 -4
55 11 103 32 76 33 97 38 167 38 125 1 182 -29 255 -134 12 -17 21 -21 38 -16
17 6 22 15 22 43 0 79 -85 166 -194 198 -59 18 -173 18 -236 1z"/>
<path d="M4835 4940 c-3 -6 1 -7 9 -4 18 7 21 14 7 14 -6 0 -13 -4 -16 -10z"/>
<path d="M4090 4856 c0 -2 8 -10 18 -17 15 -13 16 -12 3 4 -13 16 -21 21 -21
13z"/>
<path d="M4276 4678 c3 -5 10 -6 15 -3 13 9 11 12 -6 12 -8 0 -12 -4 -9 -9z"/>
<path d="M941 5004 c-94 -70 -109 -101 -71 -142 25 -27 31 -27 58 -2 12 11 24
20 27 20 3 0 5 -99 5 -220 l0 -221 58 3 57 3 3 289 c2 205 -1 293 -9 302 -22
26 -65 16 -128 -32z"/>
<path d="M1325 5027 c-85 -34 -120 -85 -137 -205 -22 -147 16 -294 90 -350 29
-22 48 -27 108 -30 91 -5 135 9 174 56 44 53 63 129 63 242 0 159 -36 244
-117 281 -47 21 -135 24 -181 6z m134 -126 c30 -30 44 -97 39 -186 -5 -91 -21
-133 -60 -154 -34 -19 -73 -7 -102 32 -41 55 -33 259 12 310 21 24 86 23 111
-2z"/>
<path d="M1807 5009 c-76 -40 -110 -128 -109 -281 1 -213 65 -302 217 -302 60
0 76 4 112 28 76 50 108 151 101 311 -4 91 -9 112 -34 162 -39 75 -89 103
-183 103 -46 -1 -77 -7 -104 -21z m165 -120 c52 -62 51 -286 -2 -334 -10 -9
-34 -17 -53 -18 -71 -2 -97 49 -97 190 0 73 4 107 18 133 30 61 95 75 134 29z"/>
<path d="M2340 4840 l0 -60 -65 0 -65 0 0 -45 0 -45 65 0 65 0 0 -61 0 -60 48
3 47 3 3 58 3 57 59 0 60 0 0 45 0 45 -60 0 -60 0 0 60 0 60 -50 0 -50 0 0
-60z"/>
<path d="M4705 4171 c-19 -58 -35 -110 -35 -114 0 -5 34 -7 75 -5 69 3 75 1
76 -17 1 -42 27 55 34 127 8 85 9 83 -65 102 l-49 13 -36 -106z m20 -101 c-3
-5 -12 -10 -18 -10 -7 0 -6 4 3 10 19 12 23 12 15 0z"/>
<path d="M3957 3779 c7 -7 15 -10 18 -7 3 3 -2 9 -12 12 -14 6 -15 5 -6 -5z"/>
<path d="M11480 3791 l0 -111 29 0 c51 0 81 18 97 56 32 77 -7 151 -85 161
l-41 6 0 -112z"/>
<path d="M12036 3778 c-31 -44 -14 -128 26 -128 42 0 49 13 46 81 -3 61 -4 64
-30 67 -18 2 -31 -4 -42 -20z"/>
<path d="M10842 3825 c-12 -25 -11 -25 38 -25 54 0 55 1 40 31 -16 29 -64 25
-78 -6z"/>
<path d="M11225 3824 c-6 -2 -9 -28 -8 -57 1 -28 2 -60 3 -69 0 -27 55 -24 74
4 18 26 21 80 6 109 -10 18 -48 25 -75 13z"/>
<path d="M12298 3789 c-10 -5 -18 -19 -18 -29 0 -17 7 -20 45 -20 49 0 55 10
25 40 -23 23 -28 24 -52 9z"/>
<path d="M2328 1973 c7 -3 16 -2 19 1 4 3 -2 6 -13 5 -11 0 -14 -3 -6 -6z"/>
<path d="M5685 1621 c-3 -5 -2 -12 3 -15 5 -3 9 1 9 9 0 17 -3 19 -12 6z"/>
<path d="M4980 1466 c0 -3 9 -10 20 -16 11 -6 20 -8 20 -6 0 3 -9 10 -20 16
-11 6 -20 8 -20 6z"/>
<path d="M5999 10162 l-64 -67 65 60 c35 33 66 61 69 63 2 1 2 4 0 7 -3 2 -34
-26 -70 -63z"/>
<path d="M5879 10043 c-13 -17 -13 -17 6 -3 11 8 22 16 24 17 2 2 0 3 -6 3 -6
0 -17 -8 -24 -17z"/>
<path d="M5814 9973 c-21 -26 -33 -44 -27 -40 14 9 77 87 70 87 -3 0 -22 -21
-43 -47z"/>
<path d="M5816 9928 c3 -5 10 -6 15 -3 13 9 11 12 -6 12 -8 0 -12 -4 -9 -9z"/>
<path d="M5738 9886 c-16 -19 -28 -39 -28 -43 0 -9 34 31 51 60 15 27 7 20
-23 -17z"/>
<path d="M5638 9738 c-8 -13 -20 -34 -27 -48 -12 -24 -11 -24 4 -5 19 23 48
75 41 75 -2 0 -10 -10 -18 -22z"/>
<path d="M5575 9629 c-9 -17 -15 -33 -13 -35 3 -2 12 12 21 31 21 43 13 47 -8
4z"/>
<path d="M5545 9569 c-4 -6 -5 -12 -2 -15 2 -3 7 2 10 11 7 17 1 20 -8 4z"/>
<path d="M1654 9510 c-155 -49 -279 -180 -313 -330 -6 -27 -11 -210 -11 -455
0 -430 2 -455 47 -555 28 -65 121 -161 191 -198 103 -55 154 -62 485 -62 l298
0 260 -205 c296 -233 301 -235 288 -123 -4 35 -17 117 -28 184 -12 67 -21 125
-21 131 0 5 32 14 70 21 133 23 249 94 320 197 15 22 40 74 56 115 l28 75 4
395 c4 431 -1 484 -52 592 -31 65 -109 145 -177 183 -101 55 -103 55 -769 54
-578 0 -619 -1 -676 -19z m1376 -101 c68 -32 132 -97 168 -169 l27 -55 0 -450
0 -450 -27 -57 c-69 -149 -207 -228 -395 -228 -61 0 -63 -1 -58 -22 11 -47 44
-282 40 -286 -4 -5 -116 80 -279 212 l-119 96 -306 0 c-332 0 -396 8 -477 55
-63 37 -139 127 -164 191 -20 55 -21 70 -18 488 l3 431 28 60 c30 64 92 136
142 163 93 52 73 51 750 49 l630 -2 55 -26z"/>
<path d="M2206 9270 c-60 -16 -137 -58 -178 -97 -52 -51 -79 -113 -85 -198 -5
-67 -4 -73 18 -89 27 -18 129 -22 159 -6 12 6 26 34 36 67 9 32 30 71 49 91
29 32 39 36 94 40 54 4 66 1 101 -22 52 -34 72 -66 72 -118 1 -64 -24 -103
-90 -140 -124 -70 -181 -159 -169 -265 7 -64 40 -93 106 -93 66 0 86 23 83 95
-3 64 11 80 100 126 73 37 122 80 156 138 25 43 27 54 27 157 0 106 -1 113
-30 160 -36 57 -104 112 -172 138 -56 21 -217 30 -277 16z"/>
<path d="M2272 8350 c-51 -8 -58 -17 -67 -81 -11 -79 23 -134 85 -139 62 -5
83 1 116 34 27 27 34 42 34 73 0 55 -31 99 -77 112 -21 6 -40 10 -43 10 -3 -1
-25 -5 -48 -9z"/>
<path d="M5506 9475 c-9 -26 -7 -32 5 -12 6 10 9 21 6 23 -2 3 -7 -2 -11 -11z"/>
<path d="M5481 9389 c-6 -18 -9 -34 -7 -36 2 -2 9 10 15 28 6 18 9 34 7 36 -2
2 -9 -10 -15 -28z"/>
<path d="M5451 9309 c-6 -18 -9 -34 -7 -36 2 -2 9 10 15 28 6 18 9 34 7 36 -2
2 -9 -10 -15 -28z"/>
<path d="M5421 9223 c-1 -6 -4 -20 -7 -30 -5 -17 -5 -17 6 0 6 10 9 23 6 30
-3 9 -5 9 -5 0z"/>
<path d="M5386 9125 c-3 -9 -6 -22 -5 -28 0 -7 5 -1 10 12 5 13 8 26 5 28 -2
2 -6 -3 -10 -12z"/>
<path d="M5346 9005 c-3 -9 -6 -22 -5 -28 0 -7 5 -1 10 12 5 13 8 26 5 28 -2
2 -6 -3 -10 -12z"/>
<path d="M6138 8993 c7 -3 16 -2 19 1 4 3 -2 6 -13 5 -11 0 -14 -3 -6 -6z"/>
<path d="M5306 8894 c-14 -37 -24 -69 -22 -71 2 -2 15 26 30 63 14 37 24 69
22 71 -2 2 -15 -26 -30 -63z"/>
<path d="M5951 8814 c0 -11 3 -14 6 -6 3 7 2 16 -1 19 -3 4 -6 -2 -5 -13z"/>
<path d="M5954 8675 c0 -66 1 -92 3 -57 2 34 2 88 0 120 -2 31 -3 3 -3 -63z"/>
<path d="M5246 8765 c-9 -26 -7 -32 5 -12 6 10 9 21 6 23 -2 3 -7 -2 -11 -11z"/>
<path d="M5206 8679 c-13 -29 -18 -45 -11 -38 14 14 47 89 40 89 -2 0 -15 -23
-29 -51z"/>
<path d="M5130 8549 c-27 -44 -28 -52 -8 -57 11 -3 11 -2 0 6 -11 8 -11 11 0
23 22 23 49 69 41 69 -5 0 -19 -19 -33 -41z"/>
<path d="M5070 8460 c-12 -16 -19 -30 -16 -30 2 0 14 14 26 30 12 17 19 30 16
30 -2 0 -14 -13 -26 -30z"/>
<path d="M5004 8373 c-21 -26 -33 -44 -27 -40 14 9 77 87 70 87 -3 0 -22 -21
-43 -47z"/>
<path d="M5951 8384 c0 -11 3 -14 6 -6 3 7 2 16 -1 19 -3 4 -6 -2 -5 -13z"/>
<path d="M4920 8268 c-15 -21 -17 -28 -6 -19 16 13 41 51 33 51 -2 0 -14 -15
-27 -32z"/>
<path d="M4854 8187 c-31 -35 -41 -55 -17 -34 11 9 22 14 25 11 3 -3 9 0 14 7
4 8 3 10 -4 5 -16 -9 -15 7 0 22 7 7 10 12 7 12 -3 0 -14 -10 -25 -23z"/>
<path d="M5953 8120 c0 -25 2 -35 4 -22 2 12 2 32 0 45 -2 12 -4 2 -4 -23z"/>
<path d="M5953 7920 c0 -47 2 -66 4 -42 2 23 2 61 0 85 -2 23 -4 4 -4 -43z"/>
<path d="M5953 7680 c0 -47 2 -66 4 -42 2 23 2 61 0 85 -2 23 -4 4 -4 -43z"/>
<path d="M5820 7601 c0 -5 7 -12 16 -15 14 -5 15 -4 4 9 -14 17 -20 19 -20 6z"/>
<path d="M669 7374 c-64 -19 -123 -78 -137 -137 -8 -31 -12 -185 -12 -485 0
-501 2 -516 70 -575 22 -18 57 -39 79 -45 28 -9 238 -12 760 -12 l720 0 53 24
c29 13 65 36 80 52 56 60 58 76 58 564 0 314 -3 457 -12 481 -18 54 -56 96
-111 124 l-51 25 -725 -1 c-598 0 -734 -3 -772 -15z m1494 -93 c9 -7 14 -17
12 -22 -3 -4 -124 -111 -268 -236 -144 -125 -288 -251 -320 -280 -71 -65 -107
-84 -157 -85 -51 -1 -100 29 -225 137 -55 48 -158 136 -230 197 -244 206 -305
259 -305 269 0 6 15 16 33 24 47 21 1435 17 1460 -4z m-1354 -265 c98 -83 207
-176 243 -206 37 -30 67 -59 67 -65 0 -5 -41 -44 -90 -85 -50 -41 -132 -110
-182 -153 -185 -158 -220 -186 -229 -181 -4 3 -8 196 -8 430 0 314 3 423 11
418 7 -4 91 -75 188 -158z m1451 -266 c0 -359 -2 -430 -14 -430 -7 0 -112 86
-232 191 -120 106 -231 201 -246 212 -16 12 -28 24 -28 28 0 4 33 33 73 65 76
61 247 208 357 306 36 32 70 58 77 58 10 0 13 -90 13 -430z m-413 -212 c193
-166 333 -296 333 -309 0 -26 -104 -29 -767 -27 -605 3 -691 5 -716 19 l-29
16 83 69 c46 38 156 132 244 209 88 77 168 146 178 154 15 12 23 9 70 -26 147
-112 241 -111 365 3 26 24 50 43 54 44 4 0 87 -69 185 -152z"/>
<path d="M3008 6994 c-16 -8 -28 -17 -28 -19 0 -10 16 -4 40 15 30 23 25 25
-12 4z"/>
<path d="M2906 6945 c-11 -8 -15 -15 -9 -15 6 0 16 7 23 15 16 19 11 19 -14 0z"/>
<path d="M2750 6870 c-8 -5 -10 -10 -5 -10 6 0 17 5 25 10 8 5 11 10 5 10 -5
0 -17 -5 -25 -10z"/>
<path d="M2450 6725 c-14 -8 -20 -14 -14 -15 5 0 19 7 30 15 24 18 16 19 -16
0z"/>
<path d="M2931 6694 c0 -11 3 -14 6 -6 3 7 2 16 -1 19 -3 4 -6 -2 -5 -13z"/>
<path d="M2378 6693 c-10 -2 -18 -9 -18 -14 0 -6 10 -5 23 2 37 20 36 23 -5
12z"/>
<path d="M15254 6618 l-19 -23 23 19 c21 18 27 26 19 26 -2 0 -12 -10 -23 -22z"/>
<path d="M15209 6563 c-13 -16 -12 -17 4 -4 9 7 17 15 17 17 0 8 -8 3 -21 -13z"/>
<path d="M14979 6303 c-13 -16 -12 -17 4 -4 9 7 17 15 17 17 0 8 -8 3 -21 -13z"/>
<path d="M2600 6220 c-9 -6 -10 -10 -3 -10 6 0 15 5 18 10 8 12 4 12 -15 0z"/>
<path d="M2585 6190 c-3 -5 -1 -10 4 -10 6 0 11 5 11 10 0 6 -2 10 -4 10 -3 0
-8 -4 -11 -10z"/>
<path d="M14759 6053 l-24 -28 28 24 c15 14 27 26 27 28 0 8 -8 1 -31 -24z"/>
<path d="M1210 6009 l-55 -51 58 47 c50 42 64 55 55 55 -2 0 -28 -23 -58 -51z"/>
<path d="M14655 5938 l-50 -53 53 50 c28 27 52 51 52 52 0 8 -9 -1 -55 -49z"/>
<path d="M1065 5878 c-33 -34 -51 -55 -39 -45 11 9 25 14 30 10 5 -5 6 -4 1 1
-10 13 33 57 47 49 6 -3 8 -2 3 2 -4 5 0 17 10 27 9 10 14 18 12 18 -3 0 -31
-28 -64 -62z"/>
<path d="M2169 5903 c-13 -16 -12 -17 4 -4 9 7 17 15 17 17 0 8 -8 3 -21 -13z"/>
<path d="M2117 5869 c7 -7 15 -10 18 -7 3 3 -2 9 -12 12 -14 6 -15 5 -6 -5z"/>
<path d="M2090 5861 c0 -6 4 -13 10 -16 6 -3 7 1 4 9 -7 18 -14 21 -14 7z"/>
<path d="M14559 5843 c-13 -16 -12 -17 4 -4 9 7 17 15 17 17 0 8 -8 3 -21 -13z"/>
<path d="M2026 5791 c-4 -5 -2 -12 3 -15 5 -4 12 -2 15 3 4 5 2 12 -3 15 -5 4
-12 2 -15 -3z"/>
<path d="M14445 5728 l-40 -43 43 40 c39 36 47 45 39 45 -2 0 -21 -19 -42 -42z"/>
<path d="M884 5708 l-29 -33 33 29 c17 17 32 31 32 33 0 8 -8 1 -36 -29z"/>
<path d="M826 5653 c-6 -14 -5 -15 5 -6 7 7 10 15 7 18 -3 3 -9 -2 -12 -12z"/>
<path d="M784 5608 l-19 -23 23 19 c21 18 27 26 19 26 -2 0 -12 -10 -23 -22z"/>
<path d="M720 5545 c-11 -13 -10 -14 4 -9 9 3 16 10 16 15 0 13 -6 11 -20 -6z"/>
<path d="M14170 5510 c-9 -6 -10 -10 -3 -10 6 0 15 5 18 10 8 12 4 12 -15 0z"/>
<path d="M646 5463 c-6 -14 -5 -15 5 -6 7 7 10 15 7 18 -3 3 -9 -2 -12 -12z"/>
<path d="M609 5423 c-13 -16 -12 -17 4 -4 16 13 21 21 13 21 -2 0 -10 -8 -17
-17z"/>
<path d="M569 5373 l-24 -28 28 24 c15 14 27 26 27 28 0 8 -8 1 -31 -24z"/>
<path d="M514 5308 l-19 -23 23 19 c21 18 27 26 19 26 -2 0 -12 -10 -23 -22z"/>
<path d="M439 5213 c-13 -16 -12 -17 4 -4 16 13 21 21 13 21 -2 0 -10 -8 -17
-17z"/>
<path d="M369 5133 c-13 -16 -12 -17 4 -4 16 13 21 21 13 21 -2 0 -10 -8 -17
-17z"/>
<path d="M335 5090 c-3 -5 -1 -10 4 -10 6 0 11 5 11 10 0 6 -2 10 -4 10 -3 0
-8 -4 -11 -10z"/>
<path d="M294 5038 c-37 -40 -58 -68 -52 -68 3 0 24 23 47 50 48 56 50 67 5
18z"/>
<path d="M204 4928 l-19 -23 23 19 c21 18 27 26 19 26 -2 0 -12 -10 -23 -22z"/>
<path d="M169 4883 c-13 -16 -12 -17 4 -4 16 13 21 21 13 21 -2 0 -10 -8 -17
-17z"/>
<path d="M129 4833 c-17 -20 -18 -23 -3 -10 11 9 23 15 26 12 2 -3 5 2 5 10 0
19 1 20 -28 -12z"/>
<path d="M56 4733 c-6 -14 -5 -15 5 -6 7 7 10 15 7 18 -3 3 -9 -2 -12 -12z"/>
<path d="M531 4464 c0 -11 3 -14 6 -6 3 7 2 16 -1 19 -3 4 -6 -2 -5 -13z"/>
<path d="M649 4183 c-13 -16 -12 -17 4 -4 9 7 17 15 17 17 0 8 -8 3 -21 -13z"/>
<path d="M1078 4103 c23 -2 59 -2 80 0 20 2 1 4 -43 4 -44 0 -61 -2 -37 -4z"/>
<path d="M1123 4073 c0 -8 6 -9 19 -2 10 5 18 11 18 12 0 2 -8 3 -18 3 -10 0
-19 -6 -19 -13z"/>
</g>
</svg>
